<?xml version="1.0" encoding="UTF-8"?> <!-- Generator: Adobe Illustrator 23.0.3, SVG Export Plug-In . SVG Version: 6.00 Build 0) --> <svg xmlns:cc="http://creativecommons.org/ns#" xmlns:dc="http://purl.org/dc/elements/1.1/" xmlns:inkscape="http://www.inkscape.org/namespaces/inkscape" xmlns:rdf="http://www.w3.org/1999/02/22-rdf-syntax-ns#" xmlns:sodipodi="http://sodipodi.sourceforge.net/DTD/sodipodi-0.dtd" xmlns:svg="http://www.w3.org/2000/svg" xmlns="http://www.w3.org/2000/svg" xmlns:xlink="http://www.w3.org/1999/xlink" version="1.1" id="logosvg.com" inkscape:output_extension="org.inkscape.output.svg.inkscape" inkscape:version="0.46" sodipodi:docname="Chanel logo.svg" sodipodi:version="0.32" x="0px" y="0px" viewBox="0 0 400 300" style="enable-background:new 0 0 400 300;" xml:space="preserve"> <style type="text/css"> .st0{fill-rule:evenodd;clip-rule:evenodd;fill:#161413;} </style> <path id="text" class="st0" d="M55.5,224.2c0,8.2,6.5,14.8,14.4,14.8c5.7,0,10.7-3.5,13-8.5c0.1-0.2,0.1-0.3,0.2-0.5l7.6,5.4 c0,0.1-0.1,0.2-0.1,0.3c-4,7.5-11.8,12.6-20.6,12.6c-12.9,0-23.5-10.8-23.5-24.1c0-13.3,10.6-24.1,23.5-24.1 c8.9,0,16.8,5.2,20.7,12.8c0.1,0.1,0.1,0.2,0.3,0.4c0,0-7.5,5.5-7.6,5.4c0-0.1-0.1-0.3-0.1-0.3c-2.2-5.4-7.3-9-13.2-8.9 C62,209.5,55.5,216,55.5,224.2z M133.2,217.3h-23.7v-16.9h-9v46.9h9v-20.6h23.7v20.6h9.1v-46.9h-9.1V217.3z M279,228.7h21.9v-9.4 H279v-9.4h23.7v-9.5h-32.8v46.9H306V238h-27V228.7z M328,238v-37.6h-9.2v46.9h34.7V238H328z M244.2,228.7l-20.1-28.2h-12.1h-0.7 v46.9h8.9h0.3V212l25.5,35.4h7.3v-46.9h-9.1V228.7z M183.1,200.5l20.9,46.9h-10.9L189,238h-24.3l-4.2,9.3h-10.9l20.8-46.9H183.1z M185.2,228.7l-8.4-18.7l-8,18.7H185.2z"></path> <path id="black" class="st0" d="M279.8,146.2c-0.1,0.1-0.2,0.2-0.3,0.4c-8.4,13.6-23.5,22.7-40.6,22.7c-5.5,0-10.8-1-15.6-2.5 c10.5-12.1,16.9-27.9,16.9-45.2c0-17.2-6.3-33-16.7-45.2c4.7-1.6,10-2.5,15.4-2.5c16.9,0,32.6,9.1,41.2,23.7 c0.1,0.1,0.1,0.2,0.1,0.3L300,87.5c-0.1-0.2-0.2-0.4-0.3-0.5c-12.1-21.2-34.9-35.4-60.8-35.4c-12.6,0-24.3,3.4-34.2,9.2 c-9.9-5.8-21.6-9.2-34.2-9.2c-25.9,0-48.7,14.2-60.8,35.4c-0.1,0.1-0.2,0.3-0.3,0.5l19.8,10.2c0-0.1,0-0.2,0.1-0.3 c8.6-14.6,24.3-23.7,41.2-23.7c5.4,0,10.6,0.9,15.4,2.5c-10.4,12.2-16.7,28-16.7,45.2c0,17.3,6.4,33.1,16.9,45.2 c-4.7,1.5-10,2.5-15.6,2.5c-17.1,0-32.2-9.1-40.6-22.7c-0.1-0.2-0.2-0.3-0.3-0.4l-9.9,5l-9.9,5.1c0,0.1,0.1,0.1,0.1,0.2 s0.1,0.1,0.1,0.2c12.2,20.8,34.7,34.8,60.4,34.8c12.6,0,24.3-3.4,34.2-9.1c9.9,5.7,21.6,9.1,34.2,9.1c25.7,0,48.2-14,60.4-34.8 c0-0.1,0.1-0.1,0.1-0.2s0.1-0.1,0.1-0.2l-9.9-5.1L279.8,146.2z M204.7,154.7c-8.1-8.6-13.3-20.3-13.3-33.1 c0-12.7,4.9-24.2,13.3-32.8c8.4,8.6,13.3,20.1,13.3,32.8C218,134.4,212.8,146.1,204.7,154.7z"></path> </svg> 