<?xml version="1.0" encoding="UTF-8"?> <!-- Generator: Adobe Illustrator 23.0.3, SVG Export Plug-In . SVG Version: 6.00 Build 0) --> <svg xmlns="http://www.w3.org/2000/svg" xmlns:xlink="http://www.w3.org/1999/xlink" id="logosvg.com" x="0px" y="0px" viewBox="0 0 400 300" style="enable-background:new 0 0 400 300;" xml:space="preserve"> <path id="logo" d="M107.5,235.1v28.3c-0.4,0-5.1,0-5.1,0c-3.5,0-4.5,0-4.8,0.1c0,0,0.1-0.1,0.1-0.1h-0.6c-0.5,0-1.1-0.5-1.1-1.1 v-27.2c0-0.6,0.5-1.1,1.1-1.1h9.3C107,234,107.5,234.5,107.5,235.1z M62.5,237.7c0.6,0,2.9-0.1,5,0c4.1,0,8.1,2.2,10.1,5.6 c0.1,0.1,0.4,0.5,0.9,0.5h11.2c-2.4-6.1-9.1-10.4-16.8-10.5l-3.4-0.1c-5.4-0.1-7.8-0.2-12.5,0.1c-5.5,0.3-9,1.5-12.4,4.5 c-3.3,2.9-5.1,6.7-5.1,10.8c0,8.4,7.4,15,17.3,15.3c6.8,0.2,7.5,0.2,16.3,0c8.2-0.2,14.1-4,16.6-10.5H78.6c-0.4,0-0.7,0.2-1,0.6 c-2,3.5-5.9,5.7-10.1,5.7c-2.3,0.1-5.1,0-5.1,0c-5.7,0-11.5-4.1-11.5-11l0-0.1C51,241.8,56.8,237.7,62.5,237.7z M288.5,223.4 c-1.1-0.7-2.4-1-4-1s-2.9,0.3-4,1c-1.1,0.7-1.7,1.5-1.7,2.4c0,1,0.6,1.8,1.7,2.4c1.1,0.7,2.4,1,4,1c1.5,0,2.9-0.3,3.9-0.9 c1-0.6,2.1-1.6,3.2-1.6c1.1,0,2.1,0.9,3.1,1.5c1,0.6,2.4,1,4,1c1.6,0,2.9-0.3,4-1c1.1-0.7,1.6-1.5,1.6-2.4c0-1-0.6-1.8-1.7-2.4 c-1.1-0.7-2.4-1-4-1c-1.5,0-2.9,0.4-4,1c-1,0.7-1.9,1.5-3.1,1.5C290.4,224.9,289.6,224,288.5,223.4z M360.5,249c0-8.4-7.5-15-17-15 l-24.9,0c-0.4,0-1.4,0.1-1.4,1.1l0,27.2c0,0.7,0.5,1.1,1,1.1c0,0,10,0,10.4,0c0-0.4,0-22.7,0-22.7c0-1,0.8-1.5,1.5-1.5l11.5,0 c3.2,0,7.9,2.9,7.9,9.1l0,14c0,0,0,1.1,1.2,1.1c0,0,9.5,0,9.8,0C360.5,263,360.5,249,360.5,249z M284.1,258.1 c-0.9,0-1.5-0.6-1.5-1.5V251c0,0,23,0,23.4,0c0-0.4,0-4.8,0-5.2h-23.4l0-5.1c0,0,0-0.6,0.4-1c0.3-0.3,0.8-0.5,1.3-0.5h26.8v-4.1 c0-0.4-0.1-0.6-0.3-0.8c-0.4-0.4-1-0.3-1-0.3h-37.6c-0.1,0-1.1,0-1.1,1.2l0,22.3c0,2.9,2.2,6,6,6l32.9,0c0.3,0,0.6-0.1,0.8-0.3 c0.2-0.2,0.3-0.5,0.3-0.8c0,0,0-3.8,0-4.2H284.1z M265.6,248.6c0,8.4-7.9,15.2-17.5,15.2c-7.9,0.2-15.9,0-16,0 c-9.6,0-17.5-6.8-17.5-15.2c0-8.3,7.8-15,17.5-15c0.1,0,8.1-0.2,16,0C257.9,233.8,265.6,240.4,265.6,248.6z M254.2,248.6 c0-6.8-5.9-10.8-11.5-10.8c-2.3-0.1-5,0-5.1,0c-5.6,0-11.5,4-11.5,10.8c0,6.8,6,11,11.5,11c2.2,0.1,4.4,0,5,0h0 C248.2,259.6,254.2,255.4,254.2,248.6z M209.9,263.4h-11.4c-0.3-4.1-3.8-10.4-12.5-10.4h-9.8c0,0,0,10,0,10.4c-0.4,0-10.4,0-10.4,0 c-0.6,0-1.1-0.5-1.1-1.1V240c0-3.4,2.6-6,6-6l27.6,0c7.2,0,11.6,4.9,11.6,9.5c0,4.3-3.4,8-8.3,9.1l-0.1,0l0,0.4l0.1,0.1 C202.4,253.4,209.7,256.4,209.9,263.4z M198.5,243.4c0-2.3-2-4.3-4.3-4.3h-15.3c-1.6,0-2.8,1.1-2.8,2.7v5.9h18 C196.5,247.8,198.5,245.8,198.5,243.4z M157.5,234h-42.7c-0.7,0-1.1,0.6-1.1,1.1c0,0,0,4.3,0,4.7c0.4,0,10.2,0,10.2,0 c3.8,0,6.4,3.3,6.4,6.4v16c0,0.5,0.5,1.1,1.1,1.1c0,0,10,0,10.4,0v-22.1c0-0.8,0.7-1.5,1.5-1.5c0,0,15,0,15.3,0v-4.7 C158.6,234.5,158.1,234,157.5,234z M106.7,135.5c0-0.1-0.4-6.4-0.4-12.7c0-8.1,6.1-15,6.3-15.3l0,0c2.6-2.9,64.9-71.6,87.4-71.6 c22.5,0,84.8,68.7,87.4,71.6c0.3,0.3,6.3,7.2,6.3,15.3c0,6.3-0.4,12.6-0.4,12.7c0,0.3-0.2,3-1.6,3.7c-0.2,0.1-0.5,0.2-0.8,0.2 c-0.6,0-1.2-0.3-1.9-0.8C288.4,138,225,82,200,82c-25,0-88.4,56-89.1,56.6c-0.7,0.5-1.3,0.7-1.8,0.7c-0.3,0-0.5-0.1-0.8-0.2 C106.8,138.4,106.7,135.8,106.7,135.5z M111.7,122.1c0,3,0.1,5,0.2,8.3c16.4-14,65-54,88.1-54c23.1,0,71.7,39.9,88.1,54 c0.1-2.2,0.2-4.9,0.2-7.7c0-5.9-4.9-11.6-4.9-11.6c-24.9-27.6-66.9-68.4-82.5-69.8c-0.3,0-0.8,0-0.8,0c0,18.8,0.6,17.9-10.5,22.6 c-1.1,0.5-38.4,16.2-73.9,48.4C111.3,117.3,111.7,122.1,111.7,122.1z M200,147.4c-25,0-88.5,56.1-89.2,56.7 c-0.7,0.5-1.3,0.7-1.8,0.7c-0.3,0-0.5-0.1-0.8-0.2c-1.5-0.7-1.6-3.4-1.7-3.7c0-0.1-0.4-6.4-0.4-12.7c0-8.1,6.1-15.1,6.3-15.3l0,0 c2.6-2.9,64.9-71.7,87.5-71.7c22.6,0,84.9,68.8,87.5,71.7c0.3,0.3,6.3,7.2,6.3,15.4c0,6.3-0.4,12.7-0.4,12.7c0,0.3-0.2,3-1.6,3.7 c-0.2,0.1-0.5,0.2-0.8,0.2c-0.6,0-1.2-0.3-1.9-0.8C288.5,203.4,225,147.4,200,147.4z M111.8,195.8c16.4-14.1,65-54,88.2-54 c23.1,0,71.8,40,88.2,54c0.1-2.2,0.2-4.9,0.2-7.7c0-5.9-4.9-11.6-4.9-11.6c-24.9-27.6-67-68.4-82.6-69.9c-0.3,0-0.8,0-0.8,0 c0,18.8,0.6,18-10.5,22.7c-1.1,0.5-38.4,16.2-73.9,48.4c-4.3,4.9-3.9,9.8-3.9,9.8C111.7,190.5,111.7,192.5,111.8,195.8z"></path> </svg> 