<?xml version="1.0" encoding="UTF-8"?> <!-- Generator: Adobe Illustrator 23.0.3, SVG Export Plug-In . SVG Version: 6.00 Build 0) --> <svg xmlns:cc="http://creativecommons.org/ns#" xmlns:dc="http://purl.org/dc/elements/1.1/" xmlns:inkscape="http://www.inkscape.org/namespaces/inkscape" xmlns:rdf="http://www.w3.org/1999/02/22-rdf-syntax-ns#" xmlns:sodipodi="http://sodipodi.sourceforge.net/DTD/sodipodi-0.dtd" xmlns:svg="http://www.w3.org/2000/svg" xmlns="http://www.w3.org/2000/svg" xmlns:xlink="http://www.w3.org/1999/xlink" version="1.1" id="logosvg.com" inkscape:output_extension="org.inkscape.output.svg.inkscape" inkscape:version="0.46" sodipodi:docname="Dior Logo.svg" sodipodi:version="0.32" x="0px" y="0px" viewBox="0 0 400 300" style="enable-background:new 0 0 400 300;" xml:space="preserve"> <style type="text/css"> .st0{fill:#211E1E;} </style> <path id="logo" class="st0" d="M379.8,162.1c0.2,5.4-3.8,7.6-6.3,7.2c-2-0.3-3.5-2.2-4.7-4c-1.2-1.9-3.1-3-5.1-2.4 c-1.9,0.7-12.7,7.7-13.3,17.6c-0.4,7.3,0,30.2,0,30.2c0,3.5,1.3,4.8,2.9,5.7c1.5,0.9,7.2,1,8.8,1.2c1.6,0.2,1.6,0.6,1.6,1.1 c0,0.5,0,0.7-1.4,0.7h-38c-1.2,0-1.7-0.2-1.7-1c0-1,1.6-0.8,2.8-1c1.2-0.2,7.6,0.4,9.5-2.9c1.4-2.1,1.2-5.5,1.2-5.5l-0.2-40.2 c0-3.2-1-3.7-1.9-4.2c-0.9-0.5-2.4-0.8-5.5,0.3c-3,1-5,1.9-5.6,0.7c-0.1-0.7-0.1-1.3,3.3-2.3c3.4-1,11.5-3.8,16.5-6.5 c5-2.8,5.8-3.2,6.9-2.4c1.2,0.8,0.8,2.6,0.8,4v13.4c1.8-3,7.8-12.9,12.5-15.8c3.7-2.3,5-2.5,7.3-2.5 C372.9,153.5,379.5,155.2,379.8,162.1z M227.9,217.6c-4.3,0-7.6-0.7-8.9-1.9c-1.3-1.2-1.7-2.4-1.7-5.3v-52c0-1.7,0.1-3.7-1.1-4.1 c-1.2-0.4-2.1-0.1-7.6,3c-5.5,3.1-12.3,5.2-15.5,6c-2.8,0.7-3.8,1.4-3.3,2.4c0.7,1.3,4.5-0.6,7.8-1.3c2.8-0.7,5.2,0.7,5.2,3.8v41.2 c0,1.8-0.3,3.7-0.9,5c-1.6,3.5-8.4,3-9.9,3c-1.8,0-2.3,0.4-2.3,1c0,0.5,0.3,1,1.4,1h37.7c0.8,0,1.4,0,1.4-0.8 C230.5,217.9,229.9,217.6,227.9,217.6z M209.2,129.8c5.1,0,9.3-4.2,9.3-9.3c0-5.1-4.2-9.3-9.3-9.3c-5.1,0-9.3,4.1-9.3,9.3 C199.9,125.6,204.1,129.8,209.2,129.8z M310.9,178.1c5.2,25.1-12.1,38.5-27.1,41.8c-14.7,3.2-39.6,0.9-44.1-26.1 c-4.1-24.3,13.6-38.8,27.1-41.3C282.9,149.4,305.7,153,310.9,178.1z M296.1,183.3c-1.5-19.4-11.1-29.1-24-27.9 c-13.3,1.2-19.4,16.4-17.5,33.3c1.9,16.9,11.9,30,24.4,27.8C291.3,214.3,297.6,202.4,296.1,183.3z M180.2,150.9 c0,32.7-21.7,68.8-66.9,68.8H22.5c-1.1,0-2.3-0.2-2.3-1.3c0-1.3,1.6-1.5,3.2-1.5c17.6-0.5,20.9-1.1,23-3.2c1.1-1.2,2.7-2.1,2.7-10.3 V90.9c0-10.1-12.3-8.5-20.9-9.4c-3-0.3-3.3-0.7-3.3-1.6c0-0.9,0.6-1.3,2.2-1.4H98C176.2,78.5,180.2,135.7,180.2,150.9z M155.7,148.7 c0-7.9-2.1-27.6-14.3-44.3c-12.2-16.7-32.6-21-50.4-21H76.5c-3.4,0-3.6,1.5-3.6,3.9v125.1c0,2.7,1,3.1,3.7,3.1h9.3 c34.7,0,44-3.2,56.2-19.4C154.3,179.8,155.7,156.6,155.7,148.7z"></path> </svg> 