<?xml version="1.0" encoding="utf-8"?>
<!-- Generator: Adobe Illustrator 14.0.0, SVG Export Plug-In . SVG Version: 6.00 Build 43363)  -->
<!DOCTYPE svg PUBLIC "-//W3C//DTD SVG 1.1//EN" "http://www.w3.org/Graphics/SVG/1.1/DTD/svg11.dtd">
<svg version="1.1" id="lexus" xmlns:svg="http://www.w3.org/2000/svg"
	 xmlns="http://www.w3.org/2000/svg" xmlns:xlink="http://www.w3.org/1999/xlink" x="0px" y="0px" width="400px" height="300px"
	 viewBox="0 0 400 300" enable-background="new 0 0 400 300" xml:space="preserve">
<path id="L" d="M78.624,117.733l-2.178,2.793c11.894,4.917,18.04,14.735,18.04,25.251c0,2.366-0.401,4.657-1.128,6.846
	c-0.538,1.526-1.201,2.402-3.128,2.433c-13.821,0.295-21.647,0.512-35.505,0.147c-1.787-0.037-2.365-0.688-2.656-2.104
	c-0.222-0.841-0.037-1.536,0.542-2.589c7.35-13.021,20.155-27.904,22.668-31.436c0.478-0.652,0.253-1.967-1.386-2.402
	c-4.797-1.418-10.181-1.994-15.639-1.994c-24.709,0.1-42.137,13.998-42.539,31.246c0.99,20.705,18.994,31.398,42.539,31.398
	c14.407,0,27.606-5.094,35.328-13.17l-7.134,0.288c-6.587,5.858-17.14,8.99-28.055,8.99c-19.895,0-36.092-9.894-36.092-27.654
	c0-15.276,16.195-27.719,36.092-27.719l0.914,0.037c1.341,0.037,1.198,0.979,0.977,1.304c-3.958,6.157-13.309,16.998-20.118,28.891
	c-1.127,1.928-1.967,3.346-1.967,5.461c0,2.866,1.791,6.258,5.387,7.713c2.365,0.946,3.854,0.977,6.407,1.014
	c18.955,0.585,26.553,0.072,43.514-0.502c0.979-0.002,1.892-0.663,2.219-1.063c3.278-3.418,5.169-9.564,5.169-14.989
	C100.894,133.847,92.195,122.966,78.624,117.733z"/>
<path id="lexus_1_" d="M373.58,142.07h-30.634c0.288-3.894,3.641-6.986,7.749-6.986h30.888v-6.511H350.52
	c-11.616,0-21.107,8.876-21.584,20.007l37.443-0.039c2.431,0,4.396,1.604,4.396,3.532c0,1.966-1.968,3.53-4.396,3.53l-41.224-0.002
	v-27.027h-12.228v26.852h-24.555c-3.604-0.586-4.733-3.202-4.733-8.299l0.002-18.553h-19.716L246.2,140.066l-15.424-11.492h-47.445
	c-10.516,0-19.281,7.237-21.211,16.876h9.531c-3.597,2.439-6.363,5.898-7.893,9.978l-30.167-0.004
	c-3.556-0.586-4.723-3.201-4.723-8.297l0.002-18.554h-12.193v17.315c-0.511,11.466,5.708,15.576,12.806,16.227l94.779-0.002
	l17.466-11.279l15.247,11.431h18.655L251.88,144.4l19.532-12.66l0.037,14.148c-0.502,11.466,6.331,15.576,13.431,16.227
	l88.696-0.002c6.111,0,11.064-4.471,11.064-10.039C384.646,146.539,379.691,142.07,373.58,142.07z M222.741,155.491h-44.429
	c0.185-4.03,3.641-7.237,7.859-7.237l26.706-0.035v-6.622l-34.93,0.037c0.586-3.641,3.821-6.437,7.752-6.437h30.129v-3.715
	l20.369,15.173L222.741,155.491z"/>
</svg>
