<?xml version="1.0" encoding="UTF-8"?> <!-- Generator: Adobe Illustrator 23.0.3, SVG Export Plug-In . SVG Version: 6.00 Build 0) --> <svg xmlns="http://www.w3.org/2000/svg" xmlns:xlink="http://www.w3.org/1999/xlink" version="1.1" id="logosvg.com" x="0px" y="0px" viewBox="0 0 400 300" style="enable-background:new 0 0 400 300;" xml:space="preserve"> <style type="text/css"> .st0{fill:#231F20;} </style> <path id="text" class="st0" d="M368.1,203.5h-8c0.2-0.4,0.4-0.8,0.6-1.1c1.3-2.6,2.7-3.5,5.7-3.5h4.1 C369.7,200.5,368.9,202,368.1,203.5z M387.8,221.6c-0.1,0.2-0.1,0.5-0.2,0.8c-0.7,2.7-2.5,3.9-6.1,3.9h-59.6c-0.9,0-1.6-0.2-1.6-1.1 c-0.5,0.7-1.3,1.1-2.2,1.1h-40.3c-0.9,0-1.6-0.2-1.6-1.1c-0.5,0.7-1.3,1.1-2.2,1.1h-19.2c-1.7,0-3.4-0.6-4.6-1.9s-1.7-3.1-1.4-4.9 c0.3-2.6,1.5-4.9,3.3-6.7c1.3-1.3,2.6-2.4,4.1-3.4H248c-2.7,0-4.3,0.9-5.5,3.2l-5.4,9.9c-1.6,2.9-3,3.7-6.1,3.7h-46.3 c-0.9,0-1.6-0.2-1.6-1.1c-0.5,0.7-1.3,1.1-2.2,1.1h-31.5c1.5-3.2,3-4.7,6.7-4.7c1.7,0,3.4-0.7,4.6-1.9c0.9-1,1.3-2.3,1.2-3.6 c-0.3-3.3-3.2-5.5-9.1-6.6l-0.5-0.1l-4.9,9c-3.2,5.7-7.1,7.9-14.5,7.9H95.8c-0.9,0-1.6-0.2-1.6-1.1c-0.5,0.7-1.3,1.1-2.2,1.1H70.3 c-2,0-3.4-0.5-3.9-1.4c-0.6-1.1,0-2.6,0.6-3.7l13.1-24H68.7l-15.9,29h-8.2l15.9-29H49.1l-15.9,29H25c5.3-9.7,10.6-19.4,15.9-29.1 H12.4c2.1-3.6,4.3-4.7,8.8-4.7h65.9c0.4,0,0.8,0.1,1.1,0.3c1.1,0.6,1.5,2,0.9,3.1L75,221.4h16.4c1.5,0.1,2.8-0.7,3.4-2l3.8-6.9 c3.1-5.8,7.2-8,14.4-8h4.4c1.2,0,1.6,0.4,1.6,1.6c1-1.1,1.6-1.6,3.1-1.6c2.1,0,4.3,0,6.4,0c-3.1,5.6-6.1,11.3-9.2,16.9h10.9 c4.9,0,7.7-0.9,10.3-5.6l6.2-11.3h9c3.5,1,7.4,2.1,10.5,5.3c3.1,3.2,3.5,7.1,1.2,10.5c-0.2,0.4-0.5,0.7-0.7,1.1h11.6 c2.5,0,4.4-0.5,5.5-3.2c1.2-2.6,2.3-5.3,3.4-7.9c1.8-4.3,4.1-5.7,9.3-5.7h16.2c3.1,0,5.1,0.7,5.9,1.9c0.6,1,0.3,2.3-0.1,3.3 c-0.5,1.3-1.1,2.6-1.6,3.8c-1.2,2.8-2.6,3.7-5.9,3.7h-16.9c-0.4,1.4-0.9,2.8-1.4,4.2h33.7c1.5,0.1,2.8-0.7,3.4-2l6.8-12.4 c1-1.8,2.1-2.4,4.3-2.4h21c4.5,0,5,1,5.2,1.9c0.2,1.1-0.4,1.6-1.8,2.5l-3.1,2c-5.5,3.6-6.5,5.4-6,7.7c0.5,2.1,2,2.7,6.1,2.7h11.2 c1.5,0.1,2.8-0.7,3.4-2l3.8-6.9c3.1-5.8,7.2-8,14.4-8h4.4c1.2,0,1.6,0.4,1.6,1.6c1-1.1,1.6-1.6,3.1-1.6c2.2,0,4.3,0,6.4,0l-9.2,16.8 h17.4c1.5,0.2,2.8-0.7,3.4-2c0.9-1.9,7.2-14.5,8.1-16.3h-4.4c0.8-1.5,1.5-3.1,2.3-4.6h4.4c0.8-1.6,1.6-3.2,2.4-4.8 c0.9-1.8,2-2.4,4.3-2.4h5.3l-3.6,7.2h8.3l-1.1,2.2c-0.9,1.8-2,2.4-4.3,2.4h-2.3c-2.6,0-3,0.2-4.1,2.4l-7.9,15.9h19.5 c1.7,0,2.7-0.6,3.4-2l6.4-12.8h8c-2.5,4.9-4.9,9.9-7.4,14.8L387.8,221.6z M195.7,213.2h9.6c1.6,0,3.3-0.2,4-2.4l0.6-1.9h-9.2 c-1.7,0-3.6,0.2-4.4,2.5C196.1,212,195.9,212.6,195.7,213.2z M117.7,209.3h-4.5c-2.7,0-4.3,0.9-5.5,3.2l-4.9,9h4.5 c2.7,0,4.2-0.9,5.5-3.2L117.7,209.3z M299.8,209.3h-4.5c-2.7,0-4.3,0.9-5.5,3.2l-4.9,9h4.5c2.7,0,4.2-0.9,5.5-3.2L299.8,209.3z"></path> <path id="crown" class="st0" d="M192.6,174.3v-4.1h21.1v4.1H192.6z M203.2,182.9h6.7v-6.4h-13.3v6.4H203.2 M196.5,168.1 c0-3.5-0.9-7-3.8-9.3h20.9c-2.8,2.4-3.8,5.8-3.8,9.3H196.5z M178.9,151.9v-3h48.6v3H178.9z M181,162.9c3-0.7,5.7-2.1,7.9-4.2h-8.4 L181,162.9z M225.3,162.9c-3-0.7-5.7-2.1-7.9-4.2h8.4C225.6,160.1,225.5,161.5,225.3,162.9z M178.1,142.2 c-2.7-15.8-7.8-32.2-13.5-43c6.1,3.3,12.6,8.5,19.6,15.7c-2.9-0.8-5.8-1.4-8.7-1.9c4,9.5,7.4,19.3,10.4,29.2H178.1z M228.3,142.2 c2.7-15.8,7.8-32.2,13.5-43c-6.1,3.3-12.6,8.5-19.6,15.7c2.9-0.8,5.8-1.4,8.7-1.9c-4,9.5-7.4,19.3-10.4,29.2H228.3z M176.3,147.3 v-3.1H230v3.1H176.3z M194.1,97.6c4.1-7.1,7.7-15.3,9.1-23.7c1.3,8.4,4.9,16.5,9.1,23.7c-1.5-0.7-3-1.4-4.8-2.1 c-1.5-0.7-2.1-0.3-2.1,1.3c0.5,15.2,2.7,32.4,10.6,45.5h-9.3c-1.4-3.4-2.6-6.8-3.5-10.3c-0.9,3.5-2.1,7-3.5,10.3h-9.3 c7.9-13.1,10.1-30.4,10.6-45.5c0-1.6-0.6-1.9-2.1-1.3C197.2,96.2,195.6,96.9,194.1,97.6z M176.3,156.6v-3.1H230v3.1H176.3z"></path> </svg> 