<?xml version="1.0" encoding="UTF-8" standalone="no"?>
<!-- Generator: Adobe Illustrator 14.0.0, SVG Export Plug-In . SVG Version: 6.00 Build 43363)  -->

<svg
   version="1.1"
   id="nvidia_x5F_logo"
   x="0px"
   y="0px"
   width="400px"
   height="300px"
   viewBox="-24.27 -20.608 400 300"
   enable-background="new -24.27 -20.608 400 300"
   xml:space="preserve"
   sodipodi:docname="Nvidia_logo.svg"
   inkscape:version="1.1.2 (b8e25be833, 2022-02-05)"
   xmlns:inkscape="http://www.inkscape.org/namespaces/inkscape"
   xmlns:sodipodi="http://sodipodi.sourceforge.net/DTD/sodipodi-0.dtd"
   xmlns="http://www.w3.org/2000/svg"
   xmlns:svg="http://www.w3.org/2000/svg"><defs
   id="defs9" /><sodipodi:namedview
   id="namedview7"
   pagecolor="#505050"
   bordercolor="#eeeeee"
   borderopacity="1"
   inkscape:pageshadow="0"
   inkscape:pageopacity="0"
   inkscape:pagecheckerboard="0"
   showgrid="false"
   inkscape:zoom="2.91"
   inkscape:cx="199.82818"
   inkscape:cy="150.17182"
   inkscape:window-width="2400"
   inkscape:window-height="1271"
   inkscape:window-x="3191"
   inkscape:window-y="-9"
   inkscape:window-maximized="1"
   inkscape:current-layer="nvidia_x5F_logo" />
<title
   id="title4">generated by pstoedit version:3.44 from NVBadge_2D.eps</title>
<path
   id="path17"
   d="M283.245,202.775c0,2.291-1.683,3.829-3.674,3.829v-0.014c-2.049,0.014-3.7-1.524-3.7-3.815  c0-2.289,1.651-3.823,3.7-3.823C281.563,198.951,283.245,200.485,283.245,202.775z M284.735,202.775c0-3.145-2.442-4.97-5.164-4.97  c-2.741,0-5.184,1.825-5.184,4.97c0,3.143,2.443,4.975,5.184,4.975C282.292,207.75,284.735,205.918,284.735,202.775   M278.713,203.196h0.554l1.281,2.249h1.407l-1.419-2.344c0.733-0.053,1.336-0.402,1.336-1.39c0-1.228-0.846-1.621-2.278-1.621  h-2.072v5.354h1.191V203.196 M278.713,202.289V201h0.829c0.45,0,1.065,0.036,1.065,0.586c0,0.599-0.318,0.703-0.85,0.703H278.713"
   style="fill:#000000;fill-opacity:1" />
<path
   id="path19"
   d="M249.955,175.383L256.394,193h-13.078L249.955,175.383z M243.059,168.524l-14.841,37.598h10.479l2.347-6.643  h17.562l2.222,6.643h11.376l-14.95-37.603L243.059,168.524z M213.266,206.136h10.631v-37.624l-10.633-0.002L213.266,206.136z   M139.463,168.51l-8.87,29.819l-8.497-29.817l-11.471-0.002l12.135,37.626h15.316l12.233-37.626H139.463z M182.435,176.703h4.568  c6.63,0,10.917,2.977,10.917,10.699c0,7.725-4.287,10.701-10.917,10.701h-4.568V176.703z M171.894,168.51v37.626h17.235  c9.183,0,12.182-1.527,15.424-4.951c2.29-2.404,3.771-7.681,3.771-13.448c0-5.29-1.254-10.006-3.439-12.944  c-3.938-5.256-9.609-6.282-18.076-6.282H171.894z M71.188,168.458v37.679h10.721v-28.609l8.307,0.002  c2.75,0,4.711,0.686,6.036,2.101c1.68,1.789,2.366,4.679,2.366,9.962v16.545h10.389v-20.818c0-14.857-9.47-16.86-18.736-16.86  H71.188z M154.784,168.51l0.004,37.626h10.626V168.51H154.784z"
   style="fill:#000000;fill-opacity:1" />
<path
   id="path21"
   fill="#77B900"
   d="M99.759,93.592c0,0,13.673-20.174,40.975-22.261v-7.319c-30.24,2.429-56.426,28.04-56.426,28.04  s14.831,42.876,56.426,46.802v-7.779C110.21,127.233,99.759,93.592,99.759,93.592z M140.734,115.601v7.125  c-23.069-4.113-29.473-28.094-29.473-28.094s11.076-12.271,29.473-14.261v7.818c-0.014,0-0.024-0.004-0.035-0.004  c-9.655-1.159-17.198,7.86-17.198,7.86S127.728,111.231,140.734,115.601 M140.734,50.512v13.5c0.888-0.068,1.775-0.125,2.668-0.156  c34.379-1.159,56.779,28.195,56.779,28.195s-25.728,31.284-52.531,31.284c-2.457,0-4.756-0.228-6.917-0.61v8.349  c1.847,0.234,3.762,0.372,5.761,0.372c24.942,0,42.98-12.739,60.446-27.815c2.896,2.319,14.752,7.961,17.188,10.431  c-16.606,13.904-55.311,25.111-77.253,25.111c-2.115,0-4.146-0.128-6.143-0.32v11.729h94.805V50.512H140.734z M140.734,80.372v-9.04  c0.878-0.062,1.764-0.108,2.668-0.137c24.722-0.777,40.941,21.245,40.941,21.245s-17.518,24.33-36.302,24.33  c-2.703,0-5.127-0.435-7.308-1.168V88.19c9.625,1.163,11.561,5.414,17.348,15.06l12.869-10.851c0,0-9.394-12.32-25.23-12.32  C143.999,80.078,142.351,80.199,140.734,80.372"
   style="fill:#000000;fill-opacity:1" />
</svg>
