<?xml version="1.0" encoding="utf-8"?>
<!-- Generator: Adobe Illustrator 24.0.0, SVG Export Plug-In . SVG Version: 6.00 Build 0)  -->
<svg version="1.1" id="Layer_1" xmlns="http://www.w3.org/2000/svg" xmlns:xlink="http://www.w3.org/1999/xlink" x="0px" y="0px"
	 viewBox="0 0 321 66" style="enable-background:new 0 0 321 66;" xml:space="preserve">
<style type="text/css">
	.st0{fill:#00273E;}
	.st1{fill:url(#SVGID_1_);}
	.st2{fill:url(#SVGID_2_);}
	.st3{fill:url(#SVGID_3_);}
</style>
<g>
	<path class="st0" d="M125.72,30.64c-3.44-0.95-5.55-1.65-5.55-3.84c0-0.96,0.29-1.72,0.87-2.28c0.7-0.68,1.83-1.02,3.18-0.99
		c2.64,0.07,3.95,1.62,4.08,3.12c0.02,0.29,0.26,0.51,0.55,0.51h4.97c0.15,0,0.3-0.06,0.41-0.18s0.16-0.27,0.14-0.42
		c-0.41-4.91-4.2-7.96-9.9-7.96c-5.97,0-9.98,3.36-9.98,8.36c0,6,4.89,7.31,8.83,8.35c3.55,0.95,5.72,1.65,5.72,4.07
		c0,2.14-1.68,3.47-4.38,3.47c-2.52,0-4.14-1.33-4.34-3.56c-0.02-0.29-0.26-0.5-0.55-0.5h-4.81c-0.31,0-0.55,0.25-0.55,0.55
		c0,4.94,4.22,8.4,10.25,8.4c6.58,0,10.02-4.32,10.02-8.6C134.68,33.11,129.71,31.74,125.72,30.64z"/>
	<path class="st0" d="M149.19,24.63h-4.73v-4.85c0-0.31-0.25-0.55-0.55-0.55h-4.53c-0.31,0-0.55,0.25-0.55,0.55v4.85h-2.01
		c-0.31,0-0.55,0.25-0.55,0.55v3.67c0,0.31,0.25,0.55,0.55,0.55h2.01v11.47c0,4.37,2.3,6.59,6.82,6.59h3.55
		c0.31,0,0.55-0.25,0.55-0.55v-3.75c0-0.31-0.25-0.55-0.55-0.55h-2.76c-1.69,0-1.97-0.53-1.97-1.73V29.4h4.73
		c0.31,0,0.55-0.25,0.55-0.55v-3.67C149.74,24.88,149.49,24.63,149.19,24.63z"/>
	<path class="st0" d="M162.16,24.28c-6.74,0-11.63,4.94-11.63,11.75c0,6.94,4.7,11.79,11.44,11.79c6.85,0,11.83-4.96,11.83-11.79
		C173.79,29.22,168.9,24.28,162.16,24.28z M161.96,42.81c-3.5,0-5.76-2.66-5.76-6.78c0-4.98,3.16-6.74,5.87-6.74
		c2.98,0,5.99,2.08,5.99,6.74C168.07,40.71,165,42.81,161.96,42.81z"/>
	<path class="st0" d="M187.9,24.28c-2.47,0-4.5,0.82-5.95,2.38v-1.48c0-0.31-0.25-0.55-0.55-0.55h-4.5c-0.3,0-0.55,0.25-0.55,0.55
		v21.73c0,0.31,0.25,0.55,0.55,0.55h4.5c0.3,0,0.55-0.25,0.55-0.55V35.47c0-3.86,1.39-5.44,4.81-5.44h1.14
		c0.3,0,0.55-0.25,0.55-0.55v-4.65C188.46,24.52,188.21,24.28,187.9,24.28z"/>
	<path class="st0" d="M200.6,24.28c-6.82,0-11.4,4.72-11.4,11.75c0,6.94,4.69,11.79,11.4,11.79c5.04,0,9.07-2.76,10.5-7.2
		c0.05-0.17,0.03-0.35-0.08-0.5c-0.1-0.14-0.27-0.23-0.45-0.23h-4.85c-0.21,0-0.4,0.12-0.5,0.31c-0.88,1.81-2.44,2.73-4.63,2.73
		c-2.94,0-5.07-1.81-5.56-4.65h15.97c0.27,0,0.5-0.2,0.55-0.47c0.11-0.71,0.16-1.44,0.16-2.29C211.72,28.9,207.14,24.28,200.6,24.28
		z M200.4,29.17c2.97,0,5.15,1.77,5.48,4.38h-10.77C195.72,30.86,197.74,29.17,200.4,29.17z"/>
	<path class="st0" d="M234.11,24.63h-4.77c-0.24,0-0.44,0.15-0.52,0.37l-5.63,16.2L217.56,25c-0.08-0.22-0.29-0.37-0.52-0.37h-4.81
		c-0.18,0-0.35,0.09-0.46,0.24c-0.1,0.15-0.13,0.34-0.06,0.51l8.24,21.73c0.08,0.21,0.29,0.36,0.52,0.36h5.36
		c0.23,0,0.43-0.14,0.52-0.36l8.28-21.73c0.06-0.17,0.04-0.36-0.06-0.51C234.46,24.72,234.29,24.63,234.11,24.63z"/>
	<path class="st0" d="M246.06,24.28c-6.82,0-11.4,4.72-11.4,11.75c0,6.94,4.69,11.79,11.4,11.79c5.04,0,9.07-2.76,10.5-7.2
		c0.05-0.17,0.03-0.35-0.08-0.5c-0.1-0.14-0.27-0.23-0.45-0.23h-4.85c-0.21,0-0.4,0.12-0.5,0.31c-0.88,1.81-2.44,2.73-4.63,2.73
		c-2.94,0-5.07-1.81-5.56-4.65h15.97c0.27,0,0.5-0.2,0.55-0.47c0.11-0.71,0.16-1.44,0.16-2.29C257.18,28.9,252.6,24.28,246.06,24.28
		z M245.86,29.17c2.97,0,5.15,1.77,5.48,4.38h-10.77C241.18,30.86,243.2,29.17,245.86,29.17z"/>
	<path class="st0" d="M271.25,24.28c-2.47,0-4.5,0.82-5.95,2.38v-1.48c0-0.31-0.25-0.55-0.55-0.55h-4.5c-0.3,0-0.55,0.25-0.55,0.55
		v21.73c0,0.31,0.25,0.55,0.55,0.55h4.5c0.3,0,0.55-0.25,0.55-0.55V35.47c0-3.86,1.39-5.44,4.81-5.44h1.14
		c0.3,0,0.55-0.25,0.55-0.55v-4.65C271.8,24.52,271.56,24.28,271.25,24.28z"/>
	<path class="st0" d="M283.3,33.74c-2.76-0.76-4.44-1.33-4.44-2.68c0-1.71,2.18-1.89,3.11-1.89c2.06,0,3.37,1,3.51,2.69
		c0.02,0.29,0.26,0.51,0.55,0.51h4.5c0.15,0,0.3-0.06,0.4-0.17s0.16-0.26,0.15-0.41c-0.25-4.63-3.68-7.5-8.95-7.5
		c-5.16,0-8.91,2.87-8.91,6.82c0,5.02,4.53,6.24,8.18,7.21c2.76,0.74,4.44,1.28,4.44,2.56c0,1.26-1.31,2.05-3.43,2.05
		c-2.05,0-3.65-1.15-3.79-2.73c-0.03-0.29-0.26-0.5-0.55-0.5h-4.65c-0.15,0-0.3,0.06-0.4,0.17c-0.1,0.11-0.16,0.26-0.15,0.41
		c0.22,4.37,4.26,7.54,9.62,7.54c5.22,0,8.87-2.87,8.87-7C291.21,35.93,286.82,34.72,283.3,33.74z"/>
	<path class="st0" d="M304.21,24.28c-6.82,0-11.4,4.72-11.4,11.75c0,6.94,4.69,11.79,11.4,11.79c5.04,0,9.07-2.76,10.5-7.2
		c0.05-0.17,0.03-0.35-0.08-0.5c-0.1-0.14-0.27-0.23-0.45-0.23h-4.85c-0.21,0-0.4,0.12-0.5,0.31c-0.88,1.81-2.44,2.73-4.63,2.73
		c-2.94,0-5.07-1.81-5.56-4.65h15.97c0.27,0,0.5-0.2,0.55-0.47c0.11-0.71,0.17-1.44,0.17-2.29
		C315.33,28.9,310.76,24.28,304.21,24.28z M304.01,29.17c2.97,0,5.15,1.77,5.48,4.38h-10.77C299.33,30.86,301.35,29.17,304.01,29.17
		z"/>
</g>
<g>
	<linearGradient id="SVGID_1_" gradientUnits="userSpaceOnUse" x1="3.2026" y1="56.7718" x2="87.1303" y2="18.0125">
		<stop  offset="0.1249" style="stop-color:#CA4DD4"/>
		<stop  offset="0.9177" style="stop-color:#007198"/>
	</linearGradient>
	<path class="st1" d="M87.56,6.55C75.92,3.04,64.04,7.29,57.3,17.41l-1.27,1.9l-1.27-1.9C48,7.29,36.14,3.01,24.48,6.56
		C12.85,10.08,5.32,20.22,5.32,32.38c0,12.16,7.52,22.29,19.16,25.82C36.12,61.73,48,57.46,54.76,47.34l1.27-1.91l1.27,1.91
		c0.28,0.43,0.57,0.84,0.88,1.24c5.2,6.98,12.97,10.83,21.28,10.83c2.67,0,5.39-0.4,8.11-1.22c11.64-3.53,19.16-13.66,19.16-25.82
		C106.72,20.21,99.2,10.08,87.56,6.55z M42.7,39.31c-3.79,5.68-9.72,6.34-14.02,5.03c-4.28-1.3-8.87-5.12-8.87-11.95
		c0-6.84,4.58-10.66,8.87-11.96c1.18-0.36,2.48-0.57,3.83-0.57c3.56,0,7.44,1.47,10.19,5.6l4.62,6.93L42.7,39.31z M83.36,44.33
		c-4.28,1.31-10.22,0.66-14.01-5.03l-2.48-3.72l-2.14-3.22l4.62-6.93c3.79-5.68,9.7-6.34,14.01-5.03c4.29,1.3,8.88,5.12,8.88,11.96
		C92.24,39.21,87.66,43.03,83.36,44.33z"/>
</g>
<linearGradient id="SVGID_2_" gradientUnits="userSpaceOnUse" x1="62.3802" y1="41.1527" x2="57.1808" y2="37.3752">
	<stop  offset="0.0353" style="stop-color:#4265AC;stop-opacity:0"/>
	<stop  offset="0.9987" style="stop-color:#4465AC"/>
</linearGradient>
<path class="st2" d="M66.87,35.59l-8.7,12.99c-0.3-0.4-0.59-0.82-0.88-1.24l-1.27-1.91l8.7-13.06L66.87,35.59z"/>
<linearGradient id="SVGID_3_" gradientUnits="userSpaceOnUse" x1="49.6429" y1="23.5047" x2="52.9772" y2="25.9272">
	<stop  offset="0.0353" style="stop-color:#4265AC;stop-opacity:0"/>
	<stop  offset="0.9987" style="stop-color:#4465AC"/>
</linearGradient>
<path class="st3" d="M56.02,19.31l-8.7,12.99c-0.3-0.4-0.59-0.82-0.88-1.24l-1.27-1.91l8.7-13.06L56.02,19.31z"/>
</svg>
