<?xml version="1.0" encoding="UTF-8"?> <!-- Generator: Adobe Illustrator 23.0.3, SVG Export Plug-In . SVG Version: 6.00 Build 0) --> <svg xmlns="http://www.w3.org/2000/svg" xmlns:xlink="http://www.w3.org/1999/xlink" version="1.1" id="logosvg.com" x="0px" y="0px" viewBox="0 0 400 300" style="enable-background:new 0 0 400 300;" xml:space="preserve"> <style type="text/css"> .st0{fill:#DA2427;} </style> <path id="logo" class="st0" d="M150.2,82.1h-13.6v-7.9h36.5v7.9h-13.6v37h-9.4V82.1z M184.9,98.9h17.5v20.1h9.4V74.2h-9.4v17h-17.5 v-17h-9.4v44.9h9.4V98.9z M225.8,99.5h20.8v-7.9h-20.8v-9.4h23.6v-7.9H217v44.9h32.4v-7.9h-23.7V99.5z M73,154.8h-0.1l-17.8-31.3 h-9.9v44.9h8.8v-32h0.1l18.3,32h9.4v-44.9H73V154.8z M86.4,146c0-21.1,15.6-23.6,21.6-23.6c5.9,0,21.6,2.6,21.6,23.6 c0,21.1-15.6,23.6-21.6,23.6C102,169.6,86.4,167,86.4,146z M95.8,146c0,12.6,7.1,15.7,12.2,15.7c5.1,0,12.2-3.1,12.2-15.7 c0-12.6-7.1-15.7-12.2-15.7C102.9,130.2,95.8,133.4,95.8,146z M186.8,168.4h9.4v-37h13.6v-7.9h-36.5v7.9h13.6V168.4z M222.5,148.3 H240v20.1h9.4v-44.9H240v17h-17.5v-17h-9.4v44.9h9.4V148.3z M135.2,190.9h-19.8v-10.1H138v-7.9h-32v44.9h9.4v-18.9h19.8V190.9z M159.2,172.8l15.8,44.9h-10.2l-2.9-9.3h-16.6l-3.1,9.3h-9.9l16-44.9H159.2z M159.4,200.7l-5.6-17.8h-0.1l-5.8,17.8H159.4z M193.9,210.8c-7.9,0-11.1-7.3-11.1-15.3c0-12.7,6.6-15.7,11.1-15.7c7.8,0,9.2,5.1,10,7.8h9.4c-0.5-6.6-5.9-15.9-19.4-15.9 c-11.6,0-20.7,8-20.7,23.7c0,15.5,8.6,23.6,20.5,23.6c11.3,0,17.6-6.8,19.5-16.6h-9.4C202.8,207.9,199.1,210.8,193.9,210.8z M225.8,198.2h20.8v-7.9h-20.8v-9.4h23.6v-7.9H217v44.9h32.4v-7.9h-23.7V198.2z M143.3,168.3h-9.2v-44.8h22.7 c11.9,0,14.1,8.8,14.1,12.7c0,4.9-2.5,9.2-6.9,10.7c3.7,1.6,5.7,3,5.7,11.4c0,6.6,0,8.2,2,8.9l0,1.2h-10.4c-0.6-2.1-1-4.4-1-9 c0-6.1-0.4-8.5-7.3-8.5h-9.7V168.3z M143.3,143.2h11c4.9,0,7.2-1.7,7.2-6.1c0-2.4-1.1-5.9-6.6-5.9h-11.7V143.2z M278.3,186.3l0-0.8 l-0.1-0.8l-0.1-0.7l-0.1-0.7l-0.2-0.7l-0.2-0.7l-0.2-0.7l-0.3-0.7l-0.3-0.7l-0.3-0.6l-0.4-0.6l-0.4-0.6l-0.4-0.6l-0.4-0.6l-0.5-0.5 l-0.5-0.5l-0.5-0.5l-0.5-0.5l-0.6-0.4l-0.6-0.4l-0.6-0.4l-0.6-0.4l-0.6-0.3l-0.7-0.3l-0.7-0.3l-0.7-0.2l-0.7-0.2l-0.7-0.2l-0.7-0.1 l-0.7-0.1l-0.8-0.1l-0.8,0h0l-8,0v46.3l22.8,0v0L278.3,186.3L278.3,186.3z M255.6,74L255.6,74l0,46.2l4.7,0v1.9l-4.7,0v47.5l8,0 l0.9,0l0.9,0.1l0.8,0.1l0.8,0.1l0.8,0.2l0.8,0.2l0.8,0.3l0.8,0.3l0.7,0.3l0.7,0.4l0.7,0.4l0.7,0.4l0.7,0.5l0.6,0.5l0.6,0.5l0.6,0.6 l0.6,0.6l0.5,0.6l0.5,0.6l0.5,0.7l0.4,0.7l0.4,0.7l0.4,0.7l0.3,0.7l0.3,0.8l0.3,0.8l0.2,0.8l0.2,0.8l0.2,0.8l0.1,0.8l0.1,0.9l0,0.9 h0l0,31.4v0l35,0l0-40.6l-0.1-2.8l-0.2-2.8l-0.4-2.8l-0.5-2.7l-0.6-2.7l-0.7-2.6l-0.9-2.6l-1-2.5l-1.1-2.4l-1.2-2.4l-1.3-2.3 l-1.4-2.2l-1.5-2.2l-1.6-2.1l-1.7-2l-1.8-1.9l-1.9-1.8l-2-1.7l-2.1-1.6l-2.2-1.5l-2.2-1.4l-2.3-1.3l-2.4-1.2l-2.4-1.1l-2.5-1 l-2.6-0.9l-2.6-0.7l-2.7-0.6l-2.7-0.5l-2.8-0.4l-2.8-0.2l-2.8-0.1v-1.9l2.9,0.1l2.9,0.2l2.8,0.4l2.8,0.5l2.8,0.6l2.7,0.8l2.6,0.9 l2.6,1l2.5,1.1l2.5,1.3l2.4,1.4l2.3,1.5l2.2,1.6l2.1,1.7l2.1,1.8l2,1.9l1.9,2l1.8,2.1l1.7,2.1l1.6,2.2l1.5,2.3l1.4,2.4l1.3,2.5 l1.1,2.5l1,2.6l0.9,2.6l0.8,2.7l0.6,2.8l0.5,2.8l0.4,2.8l0.2,2.9l0.1,2.9l0,0l0,40.6l42.7,0v-39.1C359.8,120.9,313.3,74,255.6,74z M95.5,210.2L95.5,210.2L95.5,210.2L95.5,210.2l0,0.1l0,0.1l0,0.1l0,0.1l0,0.1l0,0.1l0,0.1l0,0.1l0,0.1l-0.1,0.1l-0.1,0.1l-0.1,0.1 l-0.1,0.1l-0.1,0.1l-0.1,0.1l-0.1,0.1l-0.1,0.1l-0.1,0.1l-0.1,0.1l-0.1,0l-0.1,0l-0.1,0l-0.1,0l-0.1,0l0,0l1.3,2l-0.8,0.5l-1.6-2.4 h-2v2.2h-1v-5.8v-0.5h0.5H93l0.2,0l0.1,0l0.1,0l0.1,0l0.1,0l0.1,0l0.1,0l0.1,0l0.1,0l0.1,0l0.1,0l0.1,0l0.1,0.1l0.1,0.1l0.1,0.1 l0.1,0.1l0.1,0.1l0.1,0.1l0.1,0.1l0.1,0.1l0.1,0.1l0.1,0.1l0,0.1l0,0.1l0,0.1l0,0.1l0,0.1l0,0.1l0,0.1l0,0.1l0,0.1L95.5,210.2 L95.5,210.2z M94.5,210.2L94.5,210.2L94.5,210.2l0-0.1l0-0.1l0-0.1l0-0.1l0-0.1l0,0l0,0l0,0l0,0l0,0l0,0l0,0l0,0l0,0l0,0l0,0l0,0 l0,0l-0.1,0l-0.1,0l-0.1,0l-0.1,0l-0.1,0l-0.1,0l-0.1,0l-0.1,0l-0.1,0l-0.1,0l-0.1,0l-0.1,0l-0.1,0h-2.1v2.2h2.3l0,0l0.1,0l0.1,0 l0.1,0l0.1,0l0.1,0l0.1,0l0.1,0l0.1,0l0.1,0l0.1,0l0.1,0l0.1,0l0.1,0l0,0l0,0l0,0l0,0l0,0l0,0l0,0l0,0l0,0l0,0l0,0l0-0.1l0-0.1 l0-0.1l0-0.1l0-0.1l0-0.1L94.5,210.2L94.5,210.2z M95.8,207l0.2,0.2l0.2,0.2l0.2,0.2l0.2,0.2l0.2,0.2l0.2,0.2l0.2,0.2l0.1,0.2 l0.1,0.2l0.1,0.2l0.1,0.3l0.1,0.3l0.1,0.3l0.1,0.3l0.1,0.3l0,0.3l0,0.3l0,0.3l0,0.3h1l0-0.3l0-0.3l0-0.3l-0.1-0.3l-0.1-0.3l-0.1-0.3 l-0.1-0.3l-0.1-0.3l-0.1-0.3l-0.1-0.3l-0.2-0.3l-0.2-0.3l-0.2-0.3l-0.2-0.3l-0.2-0.2l-0.2-0.2l-0.2-0.2l-0.2-0.2l-0.3-0.2l-0.3-0.2 l-0.3-0.2l-0.3-0.2l-0.3-0.1l-0.3-0.1l-0.3-0.1l-0.3-0.1l-0.3-0.1l-0.3-0.1l-0.3-0.1l-0.3,0l-0.3,0l-0.3,0v0l0,0l-0.3,0l-0.3,0 l-0.3,0l-0.3,0.1l-0.3,0.1l-0.3,0.1l-0.3,0.1l-0.3,0.1l-0.3,0.1l-0.3,0.1l-0.3,0.2l-0.3,0.2l-0.3,0.2l-0.3,0.2l-0.2,0.2l-0.2,0.2 l-0.2,0.2l-0.2,0.2l-0.2,0.2l-0.2,0.3l-0.2,0.3l-0.2,0.3l-0.1,0.3l-0.1,0.3l-0.1,0.3l-0.1,0.3l-0.1,0.3l-0.1,0.3l-0.1,0.3l0,0.3 l0,0.3l0,0.3h0l0,0.3l0,0.3l0,0.3l0.1,0.3l0.1,0.3l0.1,0.3l0.1,0.3l0.1,0.3l0.1,0.3l0.1,0.3l0.2,0.3l0.2,0.3l0.2,0.3l0.2,0.2 l0.2,0.2l0.2,0.2l0.2,0.2l0.2,0.2l0.2,0.2l0.3,0.2l0.3,0.2l0.3,0.2l0.3,0.1l0.3,0.1l0.3,0.1l0.3,0.1l0.3,0.1l0.3,0.1l0.3,0.1l0.3,0 l0.3,0l0.3,0v0l0.3,0l0.3,0l0.3,0l0.3-0.1L94,218l0.3-0.1l0.3-0.1l0.3-0.1l0.3-0.1l0.3-0.1l0.3-0.2l0.3-0.2l0.3-0.2l0.3-0.2l0.2-0.2 l0.2-0.2l0.2-0.2l0.2-0.2l0.2-0.2l0.2-0.3L98,215l0.2-0.3l0.1-0.3l0.1-0.3l0.1-0.3l0.1-0.3l0.1-0.3l0.1-0.3l0.1-0.3l0-0.3l0-0.3 l0-0.3h-1v0l0,0.3l0,0.3l0,0.3l0,0.3l-0.1,0.3l-0.1,0.3l-0.1,0.3l-0.1,0.3l-0.1,0.3l-0.1,0.2l-0.1,0.2l-0.1,0.2l-0.2,0.2l-0.2,0.2 l-0.2,0.2l-0.2,0.2l-0.2,0.2L96,216l-0.2,0.2l-0.2,0.2l-0.2,0.1l-0.2,0.1l-0.2,0.1l-0.3,0.1l-0.3,0.1l-0.3,0.1l-0.3,0.1l-0.3,0.1 l-0.3,0l-0.3,0l-0.3,0l-0.3,0v0h0v0l-0.3,0l-0.3,0l-0.3,0l-0.3,0l-0.3-0.1l-0.3-0.1l-0.3-0.1l-0.3-0.1l-0.3-0.1l-0.2-0.1l-0.2-0.1 l-0.2-0.1l-0.2-0.2l-0.2-0.2l-0.2-0.2l-0.2-0.2l-0.2-0.2l-0.2-0.2l-0.2-0.2l-0.2-0.2l-0.1-0.2l-0.1-0.2l-0.1-0.2l-0.1-0.3l-0.1-0.3 l-0.1-0.3l-0.1-0.3l-0.1-0.3l0-0.3l0-0.3l0-0.3l0-0.3l0,0l0-0.3l0-0.3l0-0.3l0-0.3l0.1-0.3l0.1-0.3l0.1-0.3l0.1-0.3l0.1-0.3l0.1-0.2 l0.1-0.2l0.1-0.2l0.2-0.2L88,208l0.2-0.2l0.2-0.2l0.2-0.2l0.2-0.2L89,207l0.2-0.2l0.2-0.1l0.2-0.1l0.2-0.1l0.3-0.1l0.3-0.1l0.3-0.1 l0.3-0.1l0.3-0.1l0.3,0l0.3,0l0.3,0l0.3,0v0l0.3,0l0.3,0l0.3,0l0.3,0l0.3,0.1l0.3,0.1l0.3,0.1l0.3,0.1l0.3,0.1l0.2,0.1l0.2,0.1 l0.2,0.1L95.8,207z"></path> </svg> 